HIERARCHY
ROOT root
{
	OFFSET 0.000000 0.000000 0.000000
	CHANNELS 6 Xposition Yposition Zposition Zrotation Yrotation Xrotation
	JOINT lhip
	{
		OFFSET 0.058581 -0.082280 -0.017664
		CHANNELS 3 Zrotation Yrotation Xrotation
		JOINT lknee
		{
			OFFSET 0.043451 -0.386469 0.008037
			CHANNELS 3 Zrotation Yrotation Xrotation
			JOINT lankle
			{
				OFFSET -0.014790 -0.426874 -0.037428
				CHANNELS 3 Zrotation Yrotation Xrotation
				JOINT ltoe
				{
					OFFSET 0.041054 -0.060286 0.122042
					CHANNELS 3 Zrotation Yrotation Xrotation
					End Site
					{
						OFFSET 0.000000 0.000000 0.000000
					}
				}
			}
		}
	}
	JOINT rhip
	{
		OFFSET -0.060310 -0.090513 -0.013543
		CHANNELS 3 Zrotation Yrotation Xrotation
		JOINT rknee
		{
			OFFSET -0.043257 -0.383688 -0.004843
			CHANNELS 3 Zrotation Yrotation Xrotation
			JOINT rankle
			{
				OFFSET 0.019056 -0.420046 -0.034562
				CHANNELS 3 Zrotation Yrotation Xrotation
				JOINT rtoe
				{
					OFFSET -0.034840 -0.062106 0.130323
					CHANNELS 3 Zrotation Yrotation Xrotation
					End Site
					{
						OFFSET 0.000000 0.000000 0.000000
					}
				}
			}
		}
	}
	JOINT lowerback
	{
		OFFSET 0.004439 0.124404 -0.038385
		CHANNELS 3 Zrotation Yrotation Xrotation
		JOINT upperback
		{
			OFFSET 0.004488 0.137956 0.026820
			CHANNELS 3 Zrotation Yrotation Xrotation
			JOINT chest
			{
				OFFSET -0.002265 0.056032 0.002855
				CHANNELS 3 Zrotation Yrotation Xrotation
				JOINT lowerneck
				{
					OFFSET -0.013390 0.211636 -0.033468
					CHANNELS 3 Zrotation Yrotation Xrotation
					JOINT upperneck
					{
						OFFSET 0.010113 0.088937 0.050410
						CHANNELS 3 Zrotation Yrotation Xrotation
						End Site
						{
							OFFSET 0.000000 0.000000 0.000000
						}
					}
				}
				JOINT lclavicle
				{
					OFFSET 0.071702 0.114000 -0.018898
					CHANNELS 3 Zrotation Yrotation Xrotation
					JOINT lshoulder
					{
						OFFSET 0.122921 0.045205 -0.019046
						CHANNELS 3 Zrotation Yrotation Xrotation
						JOINT lelbow
						{
							OFFSET 0.255332 -0.015649 -0.022946
							CHANNELS 3 Zrotation Yrotation Xrotation
							JOINT lwrist
							{
								OFFSET 0.265709 0.012698 -0.007375
								CHANNELS 3 Zrotation Yrotation Xrotation
								End Site
								{
									OFFSET 0.000000 0.000000 0.000000
								}
							}
						}
					}
				}
				JOINT rclavicle
				{
					OFFSET -0.082954 0.112472 -0.023707
					CHANNELS 3 Zrotation Yrotation Xrotation
					JOINT rshoulder
					{
						OFFSET -0.113228 0.046853 -0.008472
						CHANNELS 3 Zrotation Yrotation Xrotation
						JOINT relbow
						{
							OFFSET -0.260127 -0.014369 -0.031269
							CHANNELS 3 Zrotation Yrotation Xrotation
							JOINT rwrist
							{
								OFFSET -0.269108 0.006794 -0.006027
								CHANNELS 3 Zrotation Yrotation Xrotation
								End Site
								{
									OFFSET 0.000000 0.000000 0.000000
								}
							}
						}
					}
				}
			}
		}
	}
}
MOTION
Frames: 13
Frame Time: 0.033333
-1.327173 0.298104 1.019975 97.350084 -3.121448 83.478163 -7.040919 -0.333866 2.314639 -6.040489 -14.002172 2.218667 1.322961 6.763484 -12.218703 0.000000 -0.000000 0.000000 -3.592830 -1.249385 -14.540571 -1.998555 -4.742727 60.273931 5.193774 -14.312665 -7.117405 0.000000 -0.000000 0.000000 -5.868154 0.309335 17.352724 0.249899 -2.696052 -1.421246 -0.583940 -2.080829 2.109290 4.942700 5.516205 -14.349385 1.284255 -3.127149 1.039472 -26.075017 2.470768 -1.164823 -51.106926 -3.637593 8.392791 10.553873 -31.804090 3.315025 8.340340 -4.687391 -6.243626 31.636851 0.892758 -4.112875 52.547115 3.989503 11.147273 -17.970358 18.442517 -18.485425 -0.691760 5.041691 -7.109918 
-1.306083 0.300834 1.020148 98.596943 -2.420272 82.628230 -6.741607 0.648125 4.377179 -5.645484 -15.541973 3.043438 2.137934 6.943467 -12.562281 0.000000 -0.000000 0.000000 -3.632321 -0.933045 -16.520513 -2.086450 -5.126734 56.734490 5.525264 -14.596259 -8.435263 0.000000 -0.000000 0.000000 -5.599254 -0.577603 17.859012 0.455091 -2.864934 -1.605944 -0.435930 -2.653711 2.275706 5.157731 5.093982 -13.969294 1.296908 -3.515246 1.395548 -26.071891 1.341775 -1.101534 -50.531473 -5.665890 8.350173 10.920881 -31.552913 1.842485 9.555671 -4.587422 -6.466318 31.478875 0.920242 -4.415663 51.763970 3.900365 11.287000 -18.346877 20.712797 -18.785123 -1.328334 5.392605 -7.501461 
-1.285891 0.302943 1.019838 99.655147 -1.747445 82.004736 -6.611346 1.146925 6.231205 -4.984413 -16.651807 3.540459 3.412616 6.919186 -12.238870 0.000000 -0.000000 0.000000 -3.755002 -0.757855 -18.389843 -2.108135 -5.320419 52.359471 6.058087 -14.374723 -9.561259 0.000000 -0.000000 0.000000 -5.183595 -1.509439 18.356105 0.554252 -3.225217 -1.730609 -0.349494 -2.962302 2.115398 5.150866 5.120377 -13.292592 1.540711 -3.220293 1.641758 -25.876336 0.433395 -1.097289 -50.088326 -7.372850 8.256591 11.285768 -31.726037 0.319317 10.330366 -4.416330 -6.577589 31.150798 1.302749 -4.426625 51.618244 3.745223 11.536033 -19.354354 22.861201 -19.651087 -1.735488 5.728386 -8.135639 
-1.266445 0.304521 1.019430 100.134987 -0.888419 81.650376 -6.345620 1.739543 7.527463 -4.221180 -17.415178 4.278884 4.671140 7.775420 -12.652483 0.000000 -0.000000 0.000000 -3.579542 -0.661796 -20.171249 -1.943182 -5.306075 47.194470 6.461963 -13.799383 -10.730335 0.000000 -0.000000 0.000000 -4.536722 -2.106568 18.639356 0.752559 -3.196651 -2.004883 -0.156552 -3.433853 2.294922 5.161205 5.146978 -13.154344 1.561039 -3.125868 2.218681 -25.856228 -0.683592 -1.065693 -49.867783 -9.186546 8.190106 11.714740 -31.679876 -0.771189 10.807480 -4.584952 -6.462537 30.828450 1.436459 -4.610223 51.357776 4.115426 11.669325 -20.268868 24.823196 -19.755486 -1.612616 5.912381 -7.928155 
-1.246802 0.305549 1.018359 100.640725 -0.241634 81.989684 -5.838714 2.561455 8.120579 -3.848120 -18.171979 5.113267 6.540421 7.561176 -12.949914 0.000000 -0.000000 0.000000 -3.833336 -1.260269 -22.394131 -1.745393 -5.911887 41.944174 6.799333 -12.321356 -10.598081 0.000000 -0.000000 0.000000 -4.072751 -3.301752 18.667496 0.624514 -2.705490 -3.391639 0.101780 -4.129378 2.716378 5.946123 5.615724 -13.437782 0.483089 -3.431719 4.442677 -25.556752 -0.044174 -1.076010 -50.135496 -11.489366 7.018939 11.802680 -32.236389 -0.728527 2.427811 -2.834035 -3.504285 30.379314 0.932039 -4.446982 51.145145 5.459312 11.547920 -20.231967 26.330800 -19.830689 1.753793 5.324393 -7.047985 
-1.226649 0.305920 1.018171 100.615630 0.254889 82.002198 -4.987649 3.129549 9.328843 -3.810426 -18.481120 5.567440 6.244026 7.608199 -14.240660 0.000000 -0.000000 0.000000 -3.862758 -1.519229 -23.549600 -1.517697 -6.761923 35.723746 7.348031 -11.498789 -9.883632 0.000000 -0.000000 0.000000 -3.800199 -4.043422 19.047876 0.661404 -2.906493 -3.954716 0.381752 -4.346333 2.472197 6.170370 5.893874 -13.090726 0.570494 -3.172009 5.070458 -25.302788 -0.243270 -1.272695 -50.323991 -12.328409 7.083854 11.820265 -32.590024 -1.122327 2.546859 -2.946529 -3.092129 30.500430 1.265095 -4.596886 51.040803 6.394980 11.818293 -20.655003 27.208777 -19.824049 1.974523 5.355372 -6.364070 
-1.205300 0.306202 1.016906 100.515951 0.524174 82.183878 -4.302254 3.670840 10.692485 -3.781155 -18.801989 5.538106 6.092249 7.415855 -15.521572 0.000000 -0.000000 0.000000 -3.938518 -2.246491 -24.348369 -0.830515 -7.538682 29.273825 8.102096 -10.594737 -8.806773 0.000000 -0.000000 0.000000 -3.618367 -4.131867 18.804959 0.734368 -3.061809 -4.060545 0.721769 -4.740553 2.187628 5.975341 6.174440 -12.676670 0.641059 -2.962746 5.718444 -25.154988 -0.918060 -1.056197 -50.387519 -13.243777 7.237608 11.588854 -32.655458 -1.285211 2.744662 -3.512258 -2.897738 30.463685 1.621560 -4.675730 51.267914 7.358334 11.692456 -20.859308 27.197404 -20.068302 1.864570 5.524006 -6.594393 
-1.183252 0.306163 1.014303 100.343458 0.742504 82.744765 -3.836169 4.020411 11.583678 -3.568597 -18.816594 5.641753 5.854649 7.187153 -16.425816 0.000000 -0.000000 0.000000 -3.821673 -2.916171 -24.961056 -0.291936 -8.880758 22.586636 9.225339 -9.919340 -7.393267 0.000000 -0.000000 0.000000 -3.170338 -4.153900 18.118432 0.706681 -3.338904 -4.211712 0.863534 -5.091073 2.006084 5.853337 6.512260 -12.200658 0.828431 -2.657950 6.132215 -24.927761 -1.584080 -0.555851 -50.434337 -13.931902 7.489803 11.253544 -32.924618 -1.018942 2.619848 -3.760265 -2.204706 30.555191 1.953754 -4.715669 51.509531 8.195827 11.501017 -21.054083 27.029503 -20.110873 1.992304 5.334273 -6.363735 
-1.161133 0.306148 1.010885 99.889262 0.764399 83.403775 -3.761677 4.060142 12.294948 -3.485034 -18.877959 5.917156 6.128279 7.864965 -17.676851 0.000000 -0.000000 0.000000 -3.566972 -3.095068 -25.639760 -0.106748 -9.640976 16.684401 10.629123 -9.691380 -5.344695 0.000000 -0.000000 0.000000 -2.761173 -4.375821 17.709473 0.536822 -3.322943 -4.785195 0.862809 -5.208855 1.826543 5.771301 6.772613 -11.870175 0.812973 -2.421432 6.913857 -24.629286 -2.067063 -0.319527 -50.574016 -14.372523 7.951400 10.656806 -32.972611 -0.306735 2.322131 -4.312791 -1.462647 30.527329 2.218003 -4.485845 51.866335 8.868484 11.691436 -20.987496 26.634289 -20.024111 2.071921 5.458086 -6.148393 
-1.136829 0.306149 1.006839 99.663302 0.436478 84.061194 -3.959617 4.445978 13.066026 -3.303507 -19.030501 6.525753 6.456871 7.866695 -18.853379 0.000000 -0.000000 0.000000 -3.463581 -3.437413 -26.135300 -0.168803 -9.975792 12.301553 11.402836 -9.654430 -4.464357 0.000000 -0.000000 0.000000 -2.615900 -4.592110 17.325717 0.375332 -3.606898 -5.152542 0.754004 -5.160156 1.494217 5.835795 6.594221 -11.883008 0.863538 -2.370964 7.424871 -24.517007 -2.434643 -0.075102 -50.415650 -14.558157 8.175903 9.810791 -33.152124 0.878771 1.663422 -4.069966 -0.437122 30.690297 2.412676 -4.365273 52.354476 9.077238 11.599887 -21.047654 26.370955 -20.007828 2.443563 5.601008 -5.835699 
-1.111556 0.306051 1.002381 99.468156 0.239313 84.443679 -3.994625 4.656806 14.178150 -3.194491 -19.096610 7.030835 6.877628 8.127512 -19.604378 0.000000 -0.000000 0.000000 -3.418339 -3.424784 -26.207679 -0.136606 -10.978263 9.911009 11.854645 -10.172156 -3.944422 0.000000 -0.000000 0.000000 -2.324055 -5.035484 17.395656 0.194662 -3.504094 -5.602202 0.582525 -5.206120 1.297351 5.950301 6.480557 -11.661002 0.988189 -2.184896 7.682988 -24.537210 -2.648000 0.067205 -50.288468 -14.799602 8.383817 9.067742 -33.412141 2.260845 0.929243 -4.381995 0.449350 30.533283 2.446360 -4.325715 52.971973 9.042630 11.733604 -20.798866 26.240461 -19.759122 2.766049 5.707053 -5.785616 
-1.084043 0.305435 0.997785 99.827701 0.270153 84.758546 -3.604087 4.761493 15.556482 -3.212266 -19.718372 7.655014 6.806733 8.698949 -20.581906 0.000000 -0.000000 0.000000 -3.275797 -3.330263 -26.267856 -0.209287 -12.768333 10.534152 10.941246 -11.808848 -4.165763 0.000000 -0.000000 0.000000 -2.030737 -5.406699 16.790457 0.309251 -3.531389 -4.999500 0.591691 -5.664496 1.387440 5.997498 6.449982 -12.113015 0.924078 -2.095019 7.371975 -24.824211 -3.366264 0.775165 -50.117502 -15.123467 8.290936 9.192099 -33.443424 2.458811 0.500567 -4.293670 0.696497 30.450520 2.955834 -4.214799 53.029160 9.005575 11.612711 -20.529178 26.025053 -19.615547 3.095480 5.751767 -5.975524 
-1.055086 0.304138 0.994294 100.436009 0.218440 85.368239 -3.229499 5.116071 16.633321 -3.196090 -19.169234 8.072508 7.116856 8.755315 -20.226300 0.000000 -0.000000 0.000000 -2.938463 -3.250219 -26.057987 -0.453908 -14.393757 12.316298 9.669515 -13.056842 -4.462987 0.000000 -0.000000 0.000000 -1.838977 -6.095016 16.236547 0.516973 -3.872990 -4.909126 0.537423 -5.928285 1.324311 6.216305 6.044528 -12.161728 0.910543 -1.897273 7.310508 -25.045114 -3.435267 1.338352 -50.167024 -15.237523 7.993587 9.213845 -33.027608 2.803995 -0.070032 -4.387661 0.627556 30.509260 2.974675 -4.194615 53.323635 8.765905 11.640049 -20.336308 25.801992 -19.143119 3.515278 5.741447 -6.063100 
